<mxfile host="65bd71144e">
    <diagram id="bYGI3_gbGLMwBny8dNPZ" name="Page-1">
        <mxGraphModel dx="555" dy="480" grid="1" gridSize="10" guides="1" tooltips="1" connect="1" arrows="1" fold="1" page="1" pageScale="1" pageWidth="850" pageHeight="1100" math="0" shadow="0">
            <root>
                <mxCell id="0"/>
                <mxCell id="1" parent="0"/>
                <mxCell id="4" value="1" style="edgeStyle=none;html=1;entryX=0;entryY=0.5;entryDx=0;entryDy=0;" edge="1" parent="1" source="2" target="3">
                    <mxGeometry x="0.875" y="15" relative="1" as="geometry">
                        <mxPoint as="offset"/>
                    </mxGeometry>
                </mxCell>
                <mxCell id="2" value="Dano" style="swimlane;whiteSpace=wrap;html=1;" vertex="1" parent="1">
                    <mxGeometry x="190" y="130" width="70" height="70" as="geometry"/>
                </mxCell>
                <mxCell id="3" value="&amp;lt;&amp;lt;abstract&amp;gt;&amp;gt;&lt;br&gt;Conteudo&lt;br&gt;" style="swimlane;whiteSpace=wrap;html=1;" vertex="1" parent="1">
                    <mxGeometry x="420" y="130" width="100" height="70" as="geometry"/>
                </mxCell>
                <mxCell id="9" style="edgeStyle=none;html=1;entryX=0.25;entryY=1;entryDx=0;entryDy=0;shape=flexArrow;" edge="1" parent="1" source="5" target="3">
                    <mxGeometry relative="1" as="geometry"/>
                </mxCell>
                <mxCell id="5" value="Detalhes" style="swimlane;whiteSpace=wrap;html=1;" vertex="1" parent="1">
                    <mxGeometry x="330" y="370" width="90" height="70" as="geometry"/>
                </mxCell>
                <mxCell id="8" style="edgeStyle=none;html=1;entryX=0.75;entryY=1;entryDx=0;entryDy=0;shape=flexArrow;endArrow=block;endFill=0;strokeWidth=1;" edge="1" parent="1" source="7" target="3">
                    <mxGeometry relative="1" as="geometry"/>
                </mxCell>
                <mxCell id="7" value="TipodeEquipamento" style="swimlane;whiteSpace=wrap;html=1;" vertex="1" parent="1">
                    <mxGeometry x="520" y="370" width="120" height="70" as="geometry"/>
                </mxCell>
                <mxCell id="11" value="" style="rhombus;whiteSpace=wrap;html=1;fillStyle=solid;gradientColor=none;strokeColor=default;shadow=0;" vertex="1" parent="1">
                    <mxGeometry x="620" y="360" width="10" height="10" as="geometry"/>
                </mxCell>
                <mxCell id="13" value="" style="endArrow=none;html=1;strokeColor=default;exitX=1;exitY=0.5;exitDx=0;exitDy=0;entryX=0.5;entryY=0;entryDx=0;entryDy=0;" edge="1" parent="1" source="3" target="11">
                    <mxGeometry width="50" height="50" relative="1" as="geometry">
                        <mxPoint x="650" y="240" as="sourcePoint"/>
                        <mxPoint x="780" y="170" as="targetPoint"/>
                        <Array as="points">
                            <mxPoint x="625" y="165"/>
                        </Array>
                    </mxGeometry>
                </mxCell>
                <mxCell id="15" value="0..*" style="edgeLabel;html=1;align=center;verticalAlign=middle;resizable=0;points=[];" vertex="1" connectable="0" parent="13">
                    <mxGeometry x="-0.8467" y="-3" relative="1" as="geometry">
                        <mxPoint x="-11" y="-14" as="offset"/>
                    </mxGeometry>
                </mxCell>
            </root>
        </mxGraphModel>
    </diagram>
</mxfile>